# xmcd
#
# Track frame offsets: 
#        150
#        16897
#        28527
#        42000
#        60017
#        78415
#        93597
#        104382
#        119465
#        131287
#        144847
#
# Disc length: 2069 seconds
#
# Revision: 0
# Processed by: cddbd v1.5.2PL0 Copyright (c) Steve Scherf et al.
# Submitted via: ExactAudioCopy v0.99pb4
#
DISCID=7b08130b
DTITLE=Satisfaction Unlimited - Think Of The Children
DYEAR=1972
DGENRE=Soul
TTITLE0=Bright City Lights
TTITLE1=I Know It's Love
TTITLE2=Spread Your Love Around
TTITLE3=Let's Change The Subject
TTITLE4=Think Of The Children
TTITLE5=Time For Us
TTITLE6=Somebody's Else Woman
TTITLE7=Why
TTITLE8=Seeing You Through The Eye Of A Blindman
TTITLE9=Don't Call Me, I'll Call You
TTITLE10=Come On Back
EXTD=
EXTT0=
EXTT1=
EXTT2=
EXTT3=
EXTT4=
EXTT5=
EXTT6=
EXTT7=
EXTT8=
EXTT9=
EXTT10=
PLAYORDER=
